<?xml version="1.0" encoding="UTF-8"?>
<svg width="84px" height="73px" viewBox="0 0 84 73" version="1.1" xmlns="http://www.w3.org/2000/svg" xmlns:xlink="http://www.w3.org/1999/xlink">
    <!-- Generator: sketchtool 40.3 (33839) - http://www.bohemiancoding.com/sketch -->
    <title>7A95CB0E-83AC-4686-A413-8CE7E47B5CFC</title>
    <desc>Created with sketchtool.</desc>
    <defs></defs>
    <g id="Login" stroke="none" stroke-width="1" fill="none" fill-rule="evenodd">
        <g id="Dashboard-0.1" transform="translate(-599.000000, -234.000000)" fill="#12C1C7">
            <g id="cloud-computing" transform="translate(599.000000, 234.000000)">
                <g id="Capa_1">
                    <g id="Group">
                        <path d="M71.3664,23.4358077 C70.6272,10.8011923 60.2406,0.701923077 47.7176,0.701923077 C40.1156,0.701923077 32.7544,4.44036538 28.1946,10.5400769 C28.0896,10.4853269 27.979,10.4474231 27.8726,10.3968846 C27.5954,10.2621154 27.314,10.1343654 27.027,10.01925 C26.8674,9.95607692 26.7078,9.89851923 26.5468,9.84236538 C26.2626,9.74269231 25.9742,9.65425 25.6802,9.57423077 C25.5192,9.53071154 25.3596,9.48578846 25.1972,9.44928846 C24.8822,9.37769231 24.5602,9.32294231 24.2354,9.27380769 C24.094,9.25275 23.9554,9.22467308 23.8126,9.20923077 C23.3478,9.15728846 22.8774,9.125 22.4,9.125 C15.4518,9.125 9.8,14.7923269 9.8,21.7596154 C9.8,21.9407115 9.8112,22.1175962 9.8238,22.2944808 C3.9998,25.477 0,32.1466731 0,38.8219615 C0,48.7654038 8.0668,56.8557692 17.983,56.8557692 L25.2,56.8557692 C25.9742,56.8557692 26.6,56.22825 26.6,55.4519231 C26.6,54.6755962 25.9742,54.0480769 25.2,54.0480769 L17.983,54.0480769 C9.611,54.0480769 2.8,47.2183654 2.8,38.8219615 C2.8,32.9903846 6.587,26.937 11.8062,24.4283269 L12.6,24.0478846 L12.6,23.1634615 C12.6,22.995 12.6112,22.8237308 12.621,22.6510577 L12.6364,22.3913462 L12.6182,22.119 C12.6098,21.9996731 12.6,21.8803462 12.6,21.7596154 C12.6,16.3421731 16.9974,11.9326923 22.4,11.9326923 C22.8326,11.9326923 23.2596,11.9705962 23.6838,12.02675 C23.793,12.0407885 23.9022,12.0590385 24.01,12.0772885 C24.3838,12.1390577 24.752,12.2204808 25.1146,12.3257692 C25.1636,12.3398077 25.214,12.3496346 25.263,12.3636731 C25.662,12.4858077 26.0512,12.6402308 26.432,12.8143077 C26.5314,12.8592308 26.628,12.9083654 26.726,12.9560962 C27.062,13.1231538 27.391,13.3056538 27.7088,13.5120192 C30.4066,15.2640192 32.2,18.3033462 32.2,21.7596154 C32.2,22.5359423 32.8258,23.1634615 33.6,23.1634615 C34.3742,23.1634615 35,22.5359423 35,21.7596154 C35,17.8934231 33.2556,14.4329423 30.52,12.1137885 C34.5338,6.84936538 41.1432,3.50961538 47.7176,3.50961538 C58.5606,3.50961538 67.5668,12.1222115 68.5062,23.0062308 C67.0768,22.9051538 64.9334,22.8532115 62.79,23.1803077 C62.0256,23.2968269 61.5006,24.0127885 61.6168,24.7792885 C61.7218,25.4741923 62.3182,25.9725577 62.9986,25.9725577 C63.0686,25.9725577 63.14,25.9669423 63.21,25.9557115 C66.3278,25.4826154 69.5772,25.9262308 69.7676,25.9529038 C76.286,27.1953077 81.2,33.2164038 81.2,39.9703077 C81.2,47.7321731 74.9014,54.0480769 67.1608,54.0480769 L61.6,54.0480769 C60.8258,54.0480769 60.2,54.6755962 60.2,55.4519231 C60.2,56.22825 60.8258,56.8557692 61.6,56.8557692 L67.1608,56.8557692 C76.4456,56.8557692 84,49.2806154 84,39.9703077 C84,32.2645962 78.6422,25.3534615 71.3664,23.4358077 L71.3664,23.4358077 Z" id="Shape"></path>
                        <path d="M53.6102,58.6709423 L44.8,67.5053462 L44.8,38.6057692 C44.8,37.8294423 44.1742,37.2019231 43.4,37.2019231 C42.6258,37.2019231 42,37.8294423 42,38.6057692 L42,67.5053462 L33.1898,58.6709423 C32.6424,58.1220385 31.7576,58.1220385 31.2102,58.6709423 C30.6628,59.2198462 30.6628,60.1070769 31.2102,60.6559808 L42.4088,71.8853462 C42.5376,72.0159038 42.693,72.1183846 42.8652,72.1899808 C43.036,72.2615769 43.218,72.2980769 43.4,72.2980769 C43.582,72.2980769 43.764,72.2615769 43.9348,72.1899808 C44.107,72.1183846 44.2624,72.0159038 44.3912,71.8853462 L55.5898,60.6559808 C56.1372,60.1070769 56.1372,59.2198462 55.5898,58.6709423 C55.0424,58.1220385 54.1576,58.1220385 53.6102,58.6709423 L53.6102,58.6709423 Z" id="Shape"></path>
                    </g>
                </g>
            </g>
        </g>
    </g>
</svg>