<?xml version="1.0" encoding="UTF-8"?>
<svg width="156px" height="30px" viewBox="0 0 156 30" version="1.1" xmlns="http://www.w3.org/2000/svg" xmlns:xlink="http://www.w3.org/1999/xlink">
    <!-- Generator: sketchtool 40.3 (33839) - http://www.bohemiancoding.com/sketch -->
    <title>9E626E9E-D419-4BED-B012-68F27293D48B</title>
    <desc>Created with sketchtool.</desc>
    <defs></defs>
    <g id="Login" stroke="none" stroke-width="1" fill="none" fill-rule="evenodd">
        <g id="Dashboard-0.1" transform="translate(-1102.000000, -19.000000)" fill="#12C1C7">
            <g id="Toolbar" transform="translate(82.000000, 0.000000)">
                <g id="dash-conpass-logo" transform="translate(1020.000000, 19.000000)">
                    <path d="M35.9397143,20.5856429 C34.2597143,18.9392143 33.419,16.9620714 33.419,14.6542143 C33.419,12.3470714 34.2597143,10.3749286 35.9397143,8.73992857 C37.6197143,7.10492857 39.6247143,6.27564286 41.9554286,6.25278571 C43.904,6.25278571 45.6854286,6.86921429 47.2982857,8.10135714 C47.679,8.39278571 47.9032857,8.78992857 47.9704286,9.29421429 C48.0375714,9.79778571 47.9204286,10.2406429 47.6175714,10.6213571 C47.3154286,11.0027857 46.9232857,11.2263571 46.4418571,11.2935 C45.9597143,11.3606429 45.5282857,11.2377857 45.1475714,10.9242143 C44.1618571,10.2070714 43.0475714,9.8485 41.804,9.8485 C40.5604286,9.8485 39.4454286,10.3306429 38.4604286,11.2935 C37.474,12.2570714 36.9818571,13.3885 36.9818571,14.6877857 C36.9818571,15.9877857 37.469,17.1135 38.4432857,18.0649286 C39.4175714,19.0177857 40.5318571,19.4935 41.7868571,19.4935 C43.0418571,19.4935 44.1618571,19.1349286 45.1475714,18.4185 C45.5054286,18.1270714 45.9318571,18.0149286 46.4247143,18.0820714 C46.9175714,18.1492143 47.3154286,18.3735 47.6175714,18.7542143 C47.9204286,19.1349286 48.0375714,19.5663571 47.9704286,20.0477857 C47.9032857,20.5299286 47.679,20.9385 47.2982857,21.2742143 C45.6404286,22.4620714 43.859,23.0556429 41.9554286,23.0556429 C39.6247143,23.0556429 37.6197143,22.2320714 35.9397143,20.5856429 Z M59.2457143,23.1565 C56.9821429,23.1565 55.0671429,22.3279286 53.4985714,20.6700714 C51.9307143,19.0122143 51.1464286,17.0293571 51.1464286,14.7215 C51.1464286,12.4143571 51.9364286,10.4257857 53.5157143,8.7565 C55.095,7.08792857 56.9935714,6.25292857 59.2114286,6.25292857 C61.43,6.25292857 63.3171429,7.09864286 64.8742857,8.79007143 C66.4314286,10.4822143 67.21,12.4922143 67.21,14.8222143 C67.21,17.1522143 66.4257143,19.0793571 64.8578571,20.6029286 C63.3792857,22.3050714 61.5078571,23.1565 59.2457143,23.1565 Z M56.0192857,11.1929286 C55.2128571,12.1336429 54.8092857,13.2986429 54.8092857,14.6879286 C54.8092857,16.0772143 55.2128571,17.2643571 56.0192857,18.2500714 C56.8928571,19.0793571 57.9457143,19.4936429 59.1778571,19.4936429 C60.41,19.4936429 61.4635714,19.0793571 62.3371429,18.2500714 C63.2107143,17.2643571 63.6478571,16.0772143 63.6478571,14.6879286 C63.6478571,13.2986429 63.2107143,12.1336429 62.3371429,11.1929286 C61.3735714,10.3415 60.3207143,9.91578571 59.1778571,9.91578571 C58.0357143,9.91578571 56.9821429,10.3415 56.0192857,11.1929286 Z M74.1546429,21.2745714 C74.1546429,21.7674286 73.9639286,22.1874286 73.5832143,22.5345714 C73.2025,22.8824286 72.7710714,23.056 72.2896429,23.056 C71.8075,23.056 71.3932143,22.8824286 71.0460714,22.5345714 C70.6989286,22.1874286 70.5253571,21.7674286 70.5253571,21.2745714 L70.5253571,8.03385714 C70.5253571,7.54171429 70.6989286,7.121 71.0460714,6.77385714 C71.3932143,6.42671429 71.8132143,6.25314286 72.3060714,6.25314286 C73.0675,6.25314286 73.6167857,6.60028571 73.9532143,7.29457143 C75.0503571,6.60028571 76.2382143,6.25314286 77.5153571,6.25314286 C79.4646429,6.25314286 81.1225,6.94171429 82.4889286,8.31957143 C83.8553571,9.69742857 84.5389286,11.3388571 84.5389286,13.2424286 L84.5389286,21.2745714 C84.5389286,21.7674286 84.3710714,22.1874286 84.0346429,22.5345714 C83.6989286,22.8824286 83.2896429,23.056 82.8082143,23.056 C82.3260714,23.056 81.9060714,22.8824286 81.5482143,22.5345714 C81.1889286,22.1874286 81.0103571,21.7674286 81.0103571,21.2745714 L81.0103571,13.2424286 C81.0103571,12.3017143 80.6682143,11.501 79.9853571,10.8402857 C79.3017857,10.1795714 78.4839286,9.84885714 77.5317857,9.84885714 C76.5796429,9.84885714 75.7789286,10.1795714 75.1289286,10.8402857 C74.4789286,11.501 74.1546429,12.3017143 74.1546429,13.2424286 L74.1546429,21.2745714 Z M90.8781429,28.8192857 C90.5081429,29.1885714 90.071,29.3735714 89.5674286,29.3735714 C89.0631429,29.3735714 88.6317143,29.1885714 88.2731429,28.8192857 C87.9145714,28.4492857 87.736,28.0292857 87.736,27.5585714 L87.736,8.03428571 C87.736,7.54142857 87.9088571,7.12142857 88.2567143,6.77357143 C88.6038571,6.42642857 89.0181429,6.25285714 89.5002857,6.25285714 C89.9817143,6.25285714 90.396,6.38714286 90.7431429,6.65642857 C91.0902857,6.925 91.2981429,7.25 91.3652857,7.63071429 C92.7767143,6.71214286 94.3002857,6.25285714 95.9352857,6.25285714 C98.176,6.25285714 100.091,7.08214286 101.682429,8.74 C103.273143,10.3978571 104.068143,12.3807143 104.068143,14.6878571 C104.068143,16.9957143 103.273143,18.9614286 101.682429,20.5857143 C100.091,22.2107143 98.176,23.0221429 95.9352857,23.0221429 C94.2102857,23.0221429 92.7095714,22.5628571 91.4324286,21.6442857 L91.4324286,27.5585714 C91.4324286,28.0292857 91.2474286,28.4492857 90.8781429,28.8192857 Z M99.0945714,11.2935714 C98.221,10.375 97.1567143,9.91571429 95.9017143,9.91571429 C94.6467143,9.91571429 93.5888571,10.3814286 92.7267143,11.3107143 C91.8638571,12.24 91.4324286,13.4 91.4324286,14.7885714 C91.4324286,16.1778571 91.8695714,17.2642857 92.7431429,18.0485714 C93.5945714,18.9892857 94.6417143,19.46 95.8852857,19.46 C97.1288571,19.46 98.1924286,18.9892857 99.0781429,18.0485714 C99.9624286,17.1071429 100.405286,15.9928571 100.405286,14.7042857 C100.405286,13.4164286 99.9681429,12.28 99.0945714,11.2935714 Z M109.034714,20.6025 C107.499714,18.9675 106.732571,16.9896429 106.732571,14.6710714 C106.732571,12.3525 107.499714,10.3696429 109.034714,8.72321429 C110.569,7.07607143 112.467571,6.25321429 114.730429,6.25321429 C116.321143,6.25321429 117.811143,6.74607143 119.200429,7.73107143 C119.311857,7.30607143 119.524714,6.95321429 119.839,6.67321429 C120.151857,6.39321429 120.539,6.25321429 120.998286,6.25321429 C121.456857,6.25321429 121.860429,6.4325 122.208286,6.79035714 C122.554714,7.14892857 122.729,7.57535714 122.729,8.0675 L122.729,21.2746429 C122.729,21.7675 122.554714,22.1875 122.208286,22.5346429 C121.860429,22.8825 121.456857,23.0553571 120.998286,23.0553571 C120.539,23.0553571 120.151857,22.9210714 119.839,22.6525 C119.524714,22.3839286 119.311857,22.0367857 119.200429,21.6110714 C117.833286,22.5739286 116.343286,23.0553571 114.730429,23.0553571 C112.467571,23.0553571 110.569,22.2382143 109.034714,20.6025 Z M110.328286,14.6710714 C110.328286,16.0267857 110.736857,17.1639286 111.554714,18.0817857 C112.372571,19.0010714 113.425429,19.4596429 114.714,19.4596429 C116.001857,19.4596429 117.066143,19.0010714 117.906143,18.0817857 C118.746143,17.1639286 119.166857,16.0317857 119.166857,14.6882143 C119.166857,13.3439286 118.740429,12.2010714 117.889714,11.2603571 C117.038286,10.3189286 115.979,9.84892857 114.714,9.84892857 C113.447571,9.84892857 112.400429,10.3139286 111.571857,11.2432143 C110.742571,12.1732143 110.328286,13.3160714 110.328286,14.6710714 Z M137.515714,8.10107143 C137.919286,8.37035714 138.170714,8.74535714 138.272143,9.22678571 C138.372857,9.70892857 138.3,10.1625 138.053571,10.5882143 C137.785,10.9910714 137.409286,11.2432143 136.927857,11.3439286 C136.445714,11.4446429 135.992143,11.3496429 135.566429,11.0582143 C134.311429,10.2296429 133.275714,9.81535714 132.457857,9.81535714 C131.64,9.81535714 130.973571,10.0167857 130.458571,10.4196429 C130.1,10.6667857 129.920714,10.8853571 129.920714,11.0753571 C129.920714,11.2660714 129.948571,11.4060714 130.005,11.4953571 C130.060714,11.5853571 130.178571,11.6860714 130.357857,11.7975 C130.85,12.1339286 131.668571,12.4025 132.811429,12.6039286 L132.845,12.6375 L132.878571,12.6375 C134.065714,12.8617857 135.152143,13.1982143 136.137857,13.6460714 C137.123571,14.0946429 137.852143,14.7103571 138.322143,15.4946429 C138.792857,16.2789286 139.027857,17.0517857 139.027857,17.8132143 C139.027857,19.3817857 138.322143,20.6810714 136.910714,21.7110714 C135.611429,22.6075 134.155,23.0553571 132.542143,23.0553571 C130.458571,23.0332143 128.464286,22.2603571 126.560714,20.7367857 C126.201429,20.4460714 125.994286,20.0482143 125.938571,19.5439286 C125.882143,19.0396429 126.011429,18.6089286 126.325,18.2503571 C126.615714,17.8467857 127.019286,17.6232143 127.535,17.5782143 C128.05,17.5332143 128.487143,17.6675 128.845714,17.9810714 C130.055714,18.9889286 131.287143,19.4825 132.542143,19.4596429 C133.393571,19.4596429 134.155,19.2467857 134.827143,18.8217857 C135.230714,18.4853571 135.432143,18.1996429 135.432143,17.9646429 C135.432143,17.7296429 135.398571,17.5667857 135.331429,17.4775 C135.286429,17.3653571 135.140714,17.2310714 134.894286,17.0739286 C134.356429,16.6932143 133.460714,16.3796429 132.206429,16.1332143 L132.172143,16.1332143 C130.985,15.9089286 129.948571,15.5839286 129.064286,15.1582143 C128.178571,14.7332143 127.467857,14.1167857 126.93,13.3103571 C126.548571,12.6832143 126.358571,11.9775 126.358571,11.1932143 C126.358571,9.73678571 127.019286,8.50464286 128.341429,7.49607143 C129.551429,6.6675 130.934286,6.2525 132.491429,6.2525 C134.048571,6.2525 135.722857,6.86892857 137.515714,8.10107143 Z M153.814857,8.13464286 C154.218429,8.40392857 154.469857,8.77892857 154.571286,9.26035714 C154.672,9.7425 154.599143,10.1960714 154.352714,10.6217857 C154.084143,11.0246429 153.708429,11.2767857 153.227,11.3775 C152.744857,11.4782143 152.291286,11.3832143 151.866286,11.0917857 C150.610571,10.2632143 149.574857,9.84892857 148.757,9.84892857 C147.939143,9.84892857 147.272714,10.0503571 146.757714,10.4532143 C146.399143,10.7003571 146.219857,10.9189286 146.219857,11.1089286 C146.219857,11.2996429 146.247714,11.4396429 146.304143,11.5289286 C146.359857,11.6189286 146.477714,11.7196429 146.657,11.8310714 C147.149143,12.1675 147.967714,12.4360714 149.110571,12.6382143 L149.144143,12.6710714 L149.177714,12.6710714 C150.364857,12.8953571 151.451286,13.2317857 152.437,13.6796429 C153.422714,14.1282143 154.151286,14.7439286 154.621286,15.5282143 C155.092,16.3125 155.327,17.0853571 155.327,17.8467857 C155.327,19.4153571 154.621286,20.7146429 153.209857,21.7446429 C151.910571,22.6410714 150.454143,23.0889286 148.841286,23.0889286 C146.757714,23.0667857 144.763429,22.2939286 142.859857,20.7703571 C142.500571,20.4796429 142.293429,20.0817857 142.237714,19.5775 C142.181286,19.0732143 142.310571,18.6425 142.624143,18.2839286 C142.914857,17.8803571 143.318429,17.6567857 143.834143,17.6117857 C144.349143,17.5667857 144.786286,17.7010714 145.144857,18.0146429 C146.354857,19.0225 147.586286,19.5160714 148.841286,19.4932143 C149.692714,19.4932143 150.454143,19.2803571 151.126286,18.8553571 C151.529857,18.5189286 151.731286,18.2332143 151.731286,17.9982143 C151.731286,17.7632143 151.697714,17.6003571 151.630571,17.5110714 C151.585571,17.3989286 151.439857,17.2646429 151.193429,17.1075 C150.656286,16.7267857 149.759857,16.4132143 148.505571,16.1667857 L148.471286,16.1667857 C147.284143,15.9425 146.247714,15.6175 145.363429,15.1917857 C144.477714,14.7667857 143.767,14.1503571 143.229143,13.3439286 C142.848429,12.7167857 142.657714,12.0110714 142.657714,11.2267857 C142.657714,9.77035714 143.318429,8.53821429 144.640571,7.52964286 C145.850571,6.70107143 147.233429,6.28607143 148.790571,6.28607143 C150.347714,6.28607143 152.022,6.9025 153.814857,8.13464286 Z M13.9265714,0.626071429 C6.498,0.626071429 0.476571429,6.64821429 0.476571429,14.0760714 C0.476571429,21.5039286 6.498,27.5260714 13.9265714,27.5260714 C21.3544286,27.5260714 27.3758571,21.5039286 27.3758571,14.0760714 C27.3758571,6.64821429 21.3544286,0.626071429 13.9265714,0.626071429 Z M16.0015714,12.5639286 C15.4065714,13.6517857 14.8108571,14.7389286 14.2158571,15.8267857 C14.1208571,15.9996429 13.8594286,15.9482143 13.8387143,15.7517857 C13.7844286,15.2439286 13.7137143,14.5389286 13.6715714,14.0696429 C13.6687143,14.0325 13.6458571,14.0032143 13.6115714,13.9903571 C13.1372857,13.8139286 12.4187143,13.5382143 11.9315714,13.3482143 C11.7715714,13.2853571 11.7915714,13.0532143 11.9594286,13.0175 C13.2008571,12.7532143 14.9237143,12.3939286 15.7537143,12.2253571 C15.9465714,12.1860714 16.0965714,12.3910714 16.0015714,12.5639286 Z M20.7544286,21.9860714 C18.563,23.8689286 16.013,24.7139286 13.1022857,24.5232143 C10.1922857,24.3325 7.80514286,23.1517857 5.94014286,20.9810714 C4.07657143,18.8117857 3.27371429,16.2789286 3.53228571,13.3839286 C3.79157143,10.4882143 5.00728571,8.08892857 7.18014286,6.18535714 C9.013,4.61035714 11.1858571,3.75107143 13.698,3.60678571 C14.2915714,3.57321429 14.823,3.76607143 15.2937143,4.18535714 C15.7644286,4.60535714 16.0115714,5.11678571 16.0344286,5.71892857 C16.058,6.32178571 15.8694286,6.84892857 15.4715714,7.30107143 C15.0722857,7.75392857 14.568,7.98678571 13.9558571,7.99892857 C12.4494286,8.12107143 11.1122857,8.68392857 9.943,9.68892857 C8.77371429,10.6932143 8.11442857,12.0475 7.96585714,13.7489286 C7.81728571,15.4517857 8.268,16.9139286 9.31728571,18.1353571 C10.3672857,19.3575 11.7351429,20.0225 13.4208571,20.1303571 C15.1065714,20.2389286 16.5387143,19.7860714 17.7187143,18.7717857 C18.8987143,17.7589286 19.6622857,16.5167857 20.0101429,15.0460714 C20.1115714,14.4832143 20.4215714,14.0332143 20.9394286,13.6982143 C21.4572857,13.3632143 22.0122857,13.2525 22.6044286,13.3660714 C23.1965714,13.4803571 23.6558571,13.7910714 23.9815714,14.2982143 C24.308,14.8053571 24.4265714,15.3710714 24.3401429,15.9946429 C23.7408571,18.4510714 22.5451429,20.4482143 20.7544286,21.9860714 Z" id="Combined-Shape"></path>
                </g>
            </g>
        </g>
    </g>
</svg>