<?xml version="1.0" encoding="UTF-8"?>
<svg width="25px" height="26px" viewBox="0 0 25 26" version="1.1" xmlns="http://www.w3.org/2000/svg" xmlns:xlink="http://www.w3.org/1999/xlink">
    <!-- Generator: sketchtool 40.3 (33839) - http://www.bohemiancoding.com/sketch -->
    <title>8AF8F8C5-C5E5-4085-8FDB-80605FDFBF99</title>
    <desc>Created with sketchtool.</desc>
    <defs></defs>
    <g id="Login" stroke="none" stroke-width="1" fill="none" fill-rule="evenodd">
        <g id="Dashboard-Menu" transform="translate(-32.000000, -256.000000)" fill="#959595">
            <g id="navigation-drawer" transform="translate(-4.000000, 1.000000)">
                <g id="ic-dashboard" transform="translate(36.000000, 181.000000)">
                    <g id="ic-dash-hover" transform="translate(0.000000, 74.000000)">
                        <g id="list-item">
                            <g id="Fill-132-+-Fill-133">
                                <path d="M10.4956474,25.48 C10.3977114,25.48 10.2997753,25.47896 10.2008084,25.47584 C4.82876066,25.32608 0.336075144,20.7948 0.187624774,15.37432 C0.109275967,12.53824 1.14430494,9.8592 3.1030251,7.82808 C5.05968346,5.798 7.68436848,4.68 10.4925547,4.68 C11.0616144,4.68 11.52346,5.14592 11.52346,5.72 L11.52346,13 C11.52346,13.57304 11.9853056,14.04 12.5543653,14.04 L19.7707028,14.04 C20.3397626,14.04 20.8016081,14.50592 20.8016081,15.08 C20.8016081,17.91296 19.692354,20.5608 17.6789958,22.53576 C15.738832,24.44104 13.1966194,25.48 10.4956474,25.48 L10.4956474,25.48 Z M9.4616493,6.82344 C7.60911239,7.05432 5.90399494,7.90608 4.58031247,9.27888 C3.01436724,10.90232 2.18655025,13.0468 2.24943547,15.31712 C2.36798959,19.65288 5.96069473,23.27728 10.2575082,23.39688 C12.5017892,23.45408 14.6316396,22.62416 16.2419138,21.0444 C17.6027088,19.70904 18.4470203,17.98888 18.6758813,16.12 L12.5543653,16.12 C10.848217,16.12 9.4616493,14.72016 9.4616493,13 L9.4616493,6.82344 L9.4616493,6.82344 Z" id="Fill-132"></path>
                                <path d="M23.8943242,11.96 L15.6470814,11.96 C14.5099928,11.96 13.5852707,11.02712 13.5852707,9.88 L13.5852707,1.56 C13.5852707,0.98592 14.0460854,0.52 14.616176,0.52 C17.5511636,0.52 20.3572879,1.7888 22.3129154,4.00088 C22.4448713,4.15168 22.5727035,4.30456 22.6964122,4.4616 C23.0489818,4.91192 22.9737257,5.56608 22.5273437,5.92176 C22.0799308,6.28056 21.4314913,6.20152 21.0789217,5.75224 C20.9809857,5.6264 20.878926,5.50472 20.7727428,5.38512 C19.4397822,3.87608 17.611987,2.91616 15.6470814,2.66552 L15.6470814,9.88 L22.7995027,9.88 C22.7757919,9.68552 22.7438338,9.49208 22.7067212,9.30072 C22.5974453,8.73704 22.960324,8.19104 23.5190747,8.0808 C24.081949,7.96536 24.6211125,8.33664 24.7303884,8.90032 C24.8592516,9.56176 24.9252295,10.24192 24.9252295,10.92 C24.9252295,11.49408 24.4644149,11.96 23.8943242,11.96" id="Fill-133"></path>
                            </g>
                        </g>
                    </g>
                </g>
            </g>
        </g>
    </g>
</svg>