<?xml version="1.0" encoding="UTF-8"?>
<svg width="25px" height="26px" viewBox="0 0 25 26" version="1.1" xmlns="http://www.w3.org/2000/svg" xmlns:xlink="http://www.w3.org/1999/xlink">
    <!-- Generator: sketchtool 40.3 (33839) - http://www.bohemiancoding.com/sketch -->
    <title>9CDE48CD-E035-4361-A51D-F86CB017186C</title>
    <desc>Created with sketchtool.</desc>
    <defs></defs>
    <g id="Login" stroke="none" stroke-width="1" fill="none" fill-rule="evenodd">
        <g id="Dashboard-Menu" transform="translate(-33.000000, -312.000000)" fill="#12C1C7">
            <g id="navigation-drawer" transform="translate(-4.000000, 1.000000)">
                <g id="ic-dashboard" transform="translate(36.000000, 181.000000)">
                    <g id="ic-download-hover" transform="translate(1.000000, 130.000000)">
                        <path d="M19.93,17.5 L16.179,17.5 C15.626,17.5 15.179,17.053 15.179,16.5 C15.179,15.947 15.626,15.5 16.179,15.5 L19.93,15.5 C20.036,15.5 20.144,15.496 20.244,15.478 C21.51,15.297 22.43,14.234 22.43,13 C22.43,12.171 22.018,11.398 21.328,10.933 C20.751,10.543 20.414,9.882 20.428,9.165 C20.474,6.172 18.679,3.629 15.961,2.807 C12.433,1.741 8.495,3.577 7.375,6.826 C7.236,7.23 6.856,7.5 6.43,7.5 C5.306,7.5 4.227,7.979 3.469,8.812 C2.701,9.657 2.339,10.753 2.448,11.898 C2.643,13.918 4.487,15.5 6.647,15.5 L12.262,15.5 C12.814,15.5 13.262,15.947 13.262,16.5 C13.262,17.053 12.814,17.5 12.262,17.5 L6.647,17.5 C3.469,17.5 0.75,15.124 0.458,12.09 C0.296,10.401 0.853,8.716 1.988,7.467 C2.967,6.39 4.305,5.708 5.735,5.541 C7.46,1.703 12.244,-0.404 16.54,0.893 C20.121,1.977 22.487,5.301 22.429,9.165 C22.429,9.187 22.426,9.244 22.424,9.267 C23.687,10.111 24.43,11.505 24.43,13 C24.43,15.225 22.77,17.138 20.57,17.45 C20.396,17.484 20.163,17.5 19.93,17.5" id="Fill-103"></path>
                        <path d="M11.43,14.351767 L11.43,24.5 C11.43,25.053 11.877,25.5 12.43,25.5 C12.982,25.5 13.43,25.053 13.43,24.5 L13.43,14.3521554 L15.648,17.125 C15.847,17.372 16.137,17.5 16.431,17.5 C16.649,17.5 16.87,17.429 17.055,17.281 C17.485,16.935 17.556,16.307 17.211,15.875 L13.992,11.853 C13.61,11.375 13.041,11.101 12.43,11.101 L12.429,11.101 C11.817,11.102 11.248,11.375 10.868,11.852 L7.648,15.875 C7.304,16.307 7.374,16.935 7.805,17.281 C8.237,17.628 8.866,17.557 9.211,17.125 L11.43,14.351767 Z" id="Combined-Shape" transform="translate(12.429749, 18.300500) scale(1, -1) translate(-12.429749, -18.300500) "></path>
                    </g>
                </g>
            </g>
        </g>
    </g>
</svg>
