<?xml version="1.0" encoding="UTF-8"?>
<svg width="22px" height="22px" viewBox="0 0 22 22" version="1.1" xmlns="http://www.w3.org/2000/svg" xmlns:xlink="http://www.w3.org/1999/xlink">
    <!-- Generator: sketchtool 40.3 (33839) - http://www.bohemiancoding.com/sketch -->
    <title>9AF6C072-FA76-4402-BA53-FBE7D61B23EC</title>
    <desc>Created with sketchtool.</desc>
    <defs>
        <path d="M16.8990984,2.41990844 L7.17548275,12.1772536 L5.64017502,16.7991539 L9.73432897,15.7720649 L19.9697138,5.50117532 L18.9461754,4.47408636 L9.22255972,14.2314315 L7.68725199,14.744976 L8.19902124,13.2043425 L17.9226369,3.4469974 L16.8990984,2.41990844 Z M17.4108676,1.90636396 L20.4814831,4.98763084 L20.9588481,4.50860993 C21.5431337,3.92229752 21.5370072,2.96554945 20.9600592,2.38660014 L20.002907,1.42612779 C19.4192902,0.84048655 18.47719,0.836342662 17.8882326,1.42734305 L17.4108676,1.90636396 Z" id="path-1"></path>
        <mask id="mask-2" maskContentUnits="userSpaceOnUse" maskUnits="objectBoundingBox" x="0" y="0" width="15.7547432" height="15.8136598" fill="white">
            <use xlink:href="#path-1"></use>
        </mask>
        <path d="M1.49213975e-13,15.6564243 L1.49270381e-13,9.10902049 C1.49239229e-13,7.45195909 1.34649528,6.1086454 2.99785174,6.1086454 L10.1631747,6.1086454 L13.2956715,6.1086454 C14.9498956,6.1086454 16.2909091,7.45841696 16.2909091,9.11393271 L16.2909091,12.2175676 L16.2909091,19.4618912 C16.2909091,21.1156634 14.9520497,22.4563107 13.2966999,22.4563107 L6.87297585,22.4563107" id="path-3"></path>
        <mask id="mask-4" maskContentUnits="userSpaceOnUse" maskUnits="objectBoundingBox" x="0" y="0" width="16.2909091" height="16.3476653" fill="white">
            <use xlink:href="#path-3"></use>
        </mask>
    </defs>
    <g id="Login" stroke="none" stroke-width="1" fill="none" fill-rule="evenodd">
        <g id="Dashboard-Projects-Installed" transform="translate(-1031.000000, -184.000000)" stroke="#A4AAC0">
            <g id="Rectangle-39-Copy-2" transform="translate(172.000000, 168.000000)">
                <g id="ic-edit" transform="translate(859.000000, 15.000000)">
                    <use id="Edit-Button-Copy-6" mask="url(#mask-2)" stroke-width="4" xlink:href="#path-1"></use>
                    <use id="Rectangle-256-Copy-6" mask="url(#mask-4)" stroke-width="2" transform="translate(8.145455, 14.282478) rotate(-180.000000) translate(-8.145455, -14.282478) " xlink:href="#path-3"></use>
                </g>
            </g>
        </g>
    </g>
</svg>