<?xml version="1.0" encoding="UTF-8"?>
<svg width="20px" height="23px" viewBox="0 0 20 23" version="1.1" xmlns="http://www.w3.org/2000/svg" xmlns:xlink="http://www.w3.org/1999/xlink">
    <!-- Generator: sketchtool 40.3 (33839) - http://www.bohemiancoding.com/sketch -->
    <title>A1E35460-66B3-4DDB-BE6D-24C49D4512B1</title>
    <desc>Created with sketchtool.</desc>
    <defs></defs>
    <g id="Login" stroke="none" stroke-width="1" fill="none" fill-rule="evenodd">
        <g id="Dashboard-Menu" transform="translate(-35.000000, -709.000000)" fill="#12C1C7">
            <g id="navigation-drawer" transform="translate(-4.000000, 1.000000)">
                <g id="ic-dashboard" transform="translate(36.000000, 181.000000)">
                    <g id="ic-logout" transform="translate(3.000000, 527.000000)">
                        <path d="M10,23 C4.486,23 0,18.514 0,13 C0,9.176 2.129,5.742 5.555,4.04 C6.052,3.793 6.649,3.996 6.895,4.49 C7.142,4.985 6.939,5.585 6.445,5.831 C3.703,7.193 2,9.94 2,13 C2,17.411 5.589,21 10,21 C14.411,21 18,17.411 18,13 C18,9.94 16.297,7.193 13.555,5.831 C13.06,5.585 12.858,4.985 13.104,4.49 C13.351,3.996 13.948,3.793 14.445,4.04 C17.871,5.742 20,9.176 20,13 C20,18.514 15.514,23 10,23" id="Fill-130"></path>
                        <path d="M10,11 C9.447,11 9,10.553 9,10 L9,1 C9,0.447 9.447,0 10,0 C10.553,0 11,0.447 11,1 L11,10 C11,10.553 10.553,11 10,11" id="Fill-131"></path>
                    </g>
                </g>
            </g>
        </g>
    </g>
</svg>
