<?xml version="1.0" encoding="UTF-8"?>
<svg width="25px" height="24px" viewBox="0 0 25 24" version="1.1" xmlns="http://www.w3.org/2000/svg" xmlns:xlink="http://www.w3.org/1999/xlink">
    <!-- Generator: sketchtool 40.3 (33839) - http://www.bohemiancoding.com/sketch -->
    <title>E8BC9C26-609B-49B5-9C4B-A55353603676</title>
    <desc>Created with sketchtool.</desc>
    <defs></defs>
    <g id="Login" stroke="none" stroke-width="1" fill="none" fill-rule="evenodd" opacity="0.7">
        <g id="Dashboard-0.1" transform="translate(-33.000000, -182.000000)" fill="#FFFFFF">
            <g id="navigation-drawer" transform="translate(0.000000, 1.000000)">
                <g id="list-+-Group-+-Fill-78-+-Fill-79-+-Fill-80-+-Imported-Layers-+-Group-+-divider-+-divider-copy-+-list-+-Group-2-+-toolbar-Mask">
                    <g id="ic-star" transform="translate(33.000000, 181.000000)">
                        <path d="M5.913,23.126 C5.482,23.126 5.054,22.99 4.682,22.719 C3.992,22.219 3.68,21.392 3.865,20.561 L5.135,14.866 C5.143,14.831 5.13,14.793 5.102,14.768 L0.727,10.907 C0.09,10.344 -0.144,9.491 0.119,8.682 C0.382,7.872 1.072,7.319 1.92,7.238 L7.727,6.686 C7.766,6.683 7.797,6.66 7.812,6.625 L10.131,1.273 C10.47,0.491 11.209,0.006 12.06,0.006 L12.062,0.006 C12.913,0.006 13.651,0.492 13.989,1.273 L16.31,6.625 C16.528,7.132 16.296,7.721 15.789,7.94 C15.282,8.161 14.693,7.926 14.474,7.42 L12.153,2.067 C12.144,2.044 12.127,2.006 12.06,2.006 C11.993,2.006 11.977,2.044 11.967,2.068 L9.648,7.42 C9.342,8.124 8.679,8.605 7.917,8.678 L2.109,9.23 C2.084,9.232 2.042,9.236 2.021,9.299 C2.001,9.363 2.032,9.391 2.051,9.407 L6.426,13.269 C6.999,13.775 7.252,14.554 7.087,15.301 L5.816,20.996 C5.811,21.02 5.802,21.061 5.856,21.101 C5.911,21.141 5.946,21.12 5.968,21.106 L10.991,18.139 C11.653,17.749 12.472,17.751 13.13,18.139 L18.153,21.106 C18.174,21.12 18.209,21.141 18.265,21.101 C18.319,21.061 18.31,21.02 18.305,20.996 L17.035,15.302 C16.868,14.552 17.122,13.773 17.696,13.268 L22.069,9.408 C22.089,9.391 22.12,9.363 22.1,9.3 C22.078,9.236 22.037,9.232 22.012,9.23 L19.234,8.966 C18.685,8.914 18.281,8.425 18.334,7.876 C18.386,7.327 18.865,6.924 19.424,6.975 L22.201,7.238 C23.049,7.319 23.738,7.872 24.002,8.682 C24.265,9.492 24.031,10.344 23.393,10.907 L19.019,14.768 C18.991,14.793 18.979,14.831 18.987,14.867 L20.256,20.561 C20.441,21.392 20.129,22.219 19.439,22.719 C18.75,23.221 17.868,23.262 17.136,22.828 L12.112,19.861 C12.081,19.842 12.04,19.842 12.009,19.861 L6.985,22.828 C6.648,23.027 6.28,23.126 5.913,23.126" id="Fill-156"></path>
                    </g>
                </g>
            </g>
        </g>
    </g>
</svg>